<?xml version="1.0" encoding="utf-8"?>
<!-- Generator: Adobe Illustrator 20.1.0, SVG Export Plug-In . SVG Version: 6.00 Build 0)  -->
<svg version="1.1" id="Layer_1" xmlns="http://www.w3.org/2000/svg" xmlns:xlink="http://www.w3.org/1999/xlink" x="0px" y="0px"
	 viewBox="0 0 531.7 74.9" style="enable-background:new 0 0 531.7 74.9;" xml:space="preserve">
<style type="text/css">
	.st0{fill:#FFFFFF;stroke:#FFFFFF;stroke-miterlimit:10;}
	.st1{fill:#FFFFFF;}
</style>
<g>
	<g>
		<path class="st0" d="M137.3,21.3H136c-1.7,0-6.3,0-8.3,0.6c-2.4,0.7-3.9,4.4-4.7,6.1c-0.1,0.3-0.3,0.3-0.5,0.3l-0.9-0.3
			c-0.2-0.1-0.3-0.1-0.2-0.4c0.5-1.9,2.4-8.7,2.5-9.3c0.1-0.7,0.3-0.8,0.5-0.8c0.3,0,0.4,0.1,0.6,0.2l0.7,0.5c0.9,0.7,1.5,0.8,3,0.9
			c2.8,0.1,5,0.3,9.9,0.3h2.5c5.7,0,8-0.2,10.6-0.3c1.2-0.1,1.8-0.2,2.7-0.7l1-0.6c0.3-0.2,0.4-0.2,0.6-0.2c0.3,0,0.4,0.2,0.5,0.8
			c0.1,0.6,1.1,7.2,1.5,9.5c0.1,0.3-0.1,0.4-0.3,0.4l-0.8,0.2c-0.2,0.1-0.3,0-0.4-0.4c-0.4-1-2-5.1-3.7-5.9
			c-1.6-0.8-6.5-0.9-9.1-0.9h-1.5v15c0,0.7,0,15.5,0.1,16.4c0.1,1.3,0.5,2.1,1.8,2.1h3.3c0.5,0,0.5,0.2,0.5,0.5v1.1
			c0,0.3-0.1,0.4-0.5,0.4c-0.5,0-2.2-0.2-7.4-0.2c-5.1,0-7.3,0.2-8,0.2c-0.4,0-0.5-0.2-0.5-0.5v-1c0-0.4,0.1-0.5,0.4-0.5h3.6
			c1.1,0,1.7-0.6,1.7-1.3c0.2-1.5,0.2-17.7,0.2-18.7V21.3H137.3z"/>
		<path class="st0" d="M171.6,36.5c0.4,0,6.1-0.2,6.7-0.3c1.5-0.3,1.9-0.7,2.4-2.3c0.2-0.5,0.4-1.6,0.4-2.6c0-0.3,0.2-0.4,0.4-0.4
			l1.3,0.1c0.3,0,0.4,0.2,0.3,0.4c-0.2,0.9-0.2,5.2-0.2,6c0,1.8,0.2,4.4,0.3,5.5c0,0.3-0.1,0.4-0.3,0.4l-1.2,0.2
			c-0.3,0.1-0.4-0.1-0.4-0.5c-0.1-0.7-0.4-1.9-0.6-2.5c-0.3-1.1-0.9-1.9-2.3-2.1c-2.5-0.3-6.1-0.3-6.9-0.3v3.3c0,2.8,0.1,7.9,0.1,9
			c0.1,2.7,1.4,3.8,3,4.1c1.1,0.2,2.6,0.4,3.9,0.4c0.9,0,3.5-0.1,4.6-0.2c0.9-0.1,3.2-0.7,4.6-1.8c0.6-0.5,3.6-4.3,4.3-5.5
			c0.2-0.3,0.3-0.5,0.6-0.3l0.8,0.5c0.3,0.2,0.3,0.3,0.1,0.7l-2.8,7.7c-0.2,0.5-0.5,0.8-1.2,0.8c-0.3,0-1.4-0.1-4.6-0.1
			c-3.2,0-8.3-0.1-16.5-0.1c-1.9,0-3.4,0.1-4.5,0.1c-1.1,0.1-1.8,0.1-2.3,0.1c-0.3,0-0.5-0.1-0.5-0.4V55c0-0.2,0.2-0.3,0.5-0.3h2.1
			c2.4,0,2.6-0.4,2.6-2.3V34.8c0-4.4-0.1-10.9-0.2-11.5c-0.2-1.7-0.7-2.1-2.7-2.1h-1.9c-0.3,0-0.4-0.1-0.4-0.4v-1.4
			c0-0.2,0.1-0.3,0.4-0.3c1.2,0,3,0.2,6.5,0.2h2.3c5.2,0,10.4-0.1,15.6-0.1c0.8,0,1.8-0.1,2.1-0.1s0.4,0.1,0.4,0.3l2.7,8.5
			c0.1,0.2,0.1,0.4-0.2,0.5l-0.8,0.4c-0.2,0.1-0.4-0.1-0.4-0.2c-0.1-0.2-4-5.2-5.3-6c-1.1-0.7-2.6-1.4-4-1.4L171,21v15.5H171.6z"/>
		<path class="st0" d="M201.4,32.7c0-3.9,0-7.3-0.1-8.8c-0.1-1.7-0.7-2.6-2-2.6h-2.1c-0.3,0-0.3-0.2-0.3-0.4v-1.3
			c0-0.3,0.1-0.4,0.3-0.4c0.5,0,2.1,0.2,6.5,0.2c2.9,0,7.8-0.2,8.8-0.2c4.4,0,7.8,1.3,9.8,3.2c1.7,1.7,2.7,4.1,2.7,6
			c0,6.6-3,9.1-9.7,10.5V39c1.3,0.5,2,1.4,2.4,2c0.6,0.7,4.4,6.1,4.8,6.7c0.3,0.5,3.6,5.3,4.6,6.1c1.1,0.8,2.3,0.9,3.8,0.9
			c0.4,0,0.4,0.2,0.4,0.4v1.2c0,0.3-0.1,0.5-0.4,0.5c-0.4,0-1.8-0.2-4.1-0.2c-1.5,0-3.5,0.1-4.3,0.2c-0.6-0.5-1.7-2.3-2.2-3
			c-0.4-0.6-3.3-5.6-3.5-6.1c-0.2-0.4-2.7-4.2-3.4-4.9c-1.4-1.6-2.6-3.1-5.7-3.1c-0.5,0-1,0-1.7,0.2v2.9c0,3.1,0.1,9,0.1,9.8
			c0.1,1.1,0.5,2.1,1.3,2.1h3.3c0.4,0,0.4,0.2,0.4,0.4v1.2c0,0.4-0.1,0.5-0.6,0.5c-0.6,0-1.9-0.2-6.9-0.2c-4.8,0-6,0.2-6.6,0.2
			c-0.4,0-0.4-0.2-0.4-0.4v-1.2c0-0.3,0-0.4,0.3-0.4h2.2c1.2,0,2.1-0.4,2.1-1.8c0.1-5.2,0.1-10.2,0.1-15.2L201.4,32.7L201.4,32.7z
			 M206.2,37.9c0.8,0.2,1.4,0.2,2.4,0.2c9.6,0,11.4-6.6,11.4-8.8c0-2.4-1.1-4.7-2.6-6c-2.1-1.6-4.4-2.4-8.7-2.4
			c-0.6,0-1.3,0.1-1.8,0.4c-0.4,0.3-0.6,0.8-0.6,1.7L206.2,37.9L206.2,37.9z"/>
		<path class="st0" d="M237.6,32.7c0-3.9,0-7.3-0.1-8.8c-0.1-1.7-0.7-2.6-2-2.6h-2.1c-0.3,0-0.3-0.2-0.3-0.4v-1.3
			c0-0.3,0.1-0.4,0.3-0.4c0.5,0,2.1,0.2,6.5,0.2c2.9,0,7.8-0.2,8.8-0.2c4.4,0,7.8,1.3,9.8,3.2c1.7,1.7,2.7,4.1,2.7,6
			c0,6.6-3,9.1-9.7,10.5V39c1.3,0.5,2,1.4,2.4,2c0.6,0.7,4.4,6.1,4.8,6.7c0.3,0.5,3.6,5.3,4.6,6.1c1.1,0.8,2.3,0.9,3.8,0.9
			c0.4,0,0.4,0.2,0.4,0.4v1.2c0,0.3-0.1,0.5-0.4,0.5c-0.4,0-1.8-0.2-4.1-0.2c-1.5,0-3.5,0.1-4.3,0.2c-0.6-0.5-1.7-2.3-2.2-3
			c-0.4-0.6-3.3-5.6-3.5-6.1c-0.2-0.4-2.7-4.2-3.4-4.9c-1.4-1.6-2.6-3.1-5.7-3.1c-0.5,0-1,0-1.7,0.2v2.9c0,3.1,0.1,9,0.1,9.8
			c0.1,1.1,0.5,2.1,1.3,2.1h3.3c0.4,0,0.4,0.2,0.4,0.4v1.2c0,0.4-0.1,0.5-0.6,0.5c-0.6,0-1.9-0.2-6.9-0.2c-4.8,0-6,0.2-6.6,0.2
			c-0.4,0-0.4-0.2-0.4-0.4v-1.2c0-0.3,0-0.4,0.3-0.4h2.2c1.2,0,2.1-0.4,2.1-1.8c0.1-5.2,0.1-10.2,0.1-15.2L237.6,32.7L237.6,32.7z
			 M242.3,37.9c0.8,0.2,1.4,0.2,2.4,0.2c9.6,0,11.4-6.6,11.4-8.8c0-2.4-1.1-4.7-2.6-6c-2.1-1.6-4.4-2.4-8.7-2.4
			c-0.6,0-1.3,0.1-1.8,0.4c-0.4,0.3-0.6,0.8-0.6,1.7L242.3,37.9L242.3,37.9z"/>
		<path class="st0" d="M278,42c-0.5,1.3-3.4,9.3-3.7,10.4c-0.1,0.4-0.2,0.9-0.2,1.2c0,0.7,0.6,1.2,1.8,1.2h2.5
			c0.4,0,0.5,0.1,0.5,0.4v1.2c0,0.4-0.2,0.5-0.4,0.5c-0.7,0-2.9-0.2-6-0.2c-3.8,0-5,0.2-5.7,0.2c-0.3,0-0.4-0.1-0.4-0.4v-1.3
			c0-0.3,0.2-0.4,0.4-0.4h1.8c1.6,0,2.3-0.7,3.1-2.4c0.4-0.8,4.2-10.6,5.7-14.9c0.4-1.1,4.6-12.4,5.1-13.8c0.2-0.5,0.4-1.2,0.1-1.8
			c-0.2-0.2-0.4-0.5-0.4-0.7s0.1-0.4,0.5-0.5c1.5-0.3,3.8-1.9,4.4-2.6c0.3-0.3,0.4-0.5,0.7-0.5c0.3,0,0.4,0.3,0.6,0.9
			c1,3.3,5.1,15.1,6.1,18.5c1.2,4.1,4.6,13.9,5.4,15.4c0.9,1.7,2.3,2.4,3.6,2.4h1.7c0.3,0,0.4,0.2,0.4,0.4v1.3
			c0,0.3-0.2,0.4-0.5,0.4c-0.9,0-2.1-0.2-6.3-0.2c-4.4,0-6.2,0.2-7.4,0.2c-0.3,0-0.4-0.2-0.4-0.5v-1.2c0-0.3,0.2-0.4,0.5-0.4h1.3
			c1.5,0,1.9-0.5,1.6-2c-0.4-1.9-2.6-8.6-3.3-10.7L278,42L278,42L278,42z M290.3,40.1c-0.5-1.6-4.7-14.7-5-15.5
			c-0.2-0.4-0.3-0.7-0.4-0.7c-0.2,0-0.4,0.4-0.6,0.8c-0.3,0.7-5.3,14.2-5.6,15.5L290.3,40.1L290.3,40.1z"/>
	</g>
</g>
<path class="st0" d="M471.5,36.4c0.4,0,6.1-0.2,6.7-0.3c1.5-0.3,1.9-0.7,2.4-2.3c0.2-0.5,0.4-1.6,0.4-2.6c0-0.3,0.2-0.4,0.4-0.4
	l1.3,0.1c0.3,0,0.4,0.2,0.3,0.4c-0.2,0.9-0.2,5.2-0.2,6c0,1.8,0.2,4.4,0.3,5.5c0,0.3-0.1,0.4-0.3,0.4l-1.2,0.2
	c-0.3,0.1-0.4-0.1-0.4-0.5c-0.1-0.7-0.4-1.9-0.6-2.5c-0.3-1.1-0.9-1.9-2.3-2.1c-2.5-0.3-6.1-0.3-6.9-0.3v3.3c0,2.8,0.1,7.9,0.1,9
	c0.1,2.7,1.4,3.8,3,4.1c1.1,0.2,2.6,0.4,3.9,0.4c0.9,0,3.5-0.1,4.6-0.2c0.9-0.1,3.2-0.7,4.6-1.8c0.6-0.5,3.6-4.3,4.3-5.5
	c0.2-0.3,0.3-0.5,0.6-0.3l0.8,0.5c0.3,0.2,0.3,0.3,0.1,0.7l-2.8,7.7c-0.2,0.5-0.5,0.8-1.2,0.8c-0.3,0-1.4-0.1-4.6-0.1
	s-8.3-0.1-16.5-0.1c-1.9,0-3.4,0.1-4.5,0.1c-1.1,0.1-1.8,0.1-2.3,0.1c-0.3,0-0.5-0.1-0.5-0.4v-1.4c0-0.2,0.2-0.3,0.5-0.3h2.1
	c2.4,0,2.6-0.4,2.6-2.3V34.7c0-4.4-0.1-10.9-0.2-11.5c-0.2-1.7-0.7-2.1-2.7-2.1h-1.9c-0.3,0-0.4-0.1-0.4-0.4v-1.4
	c0-0.2,0.1-0.3,0.4-0.3c1.2,0,3,0.2,6.5,0.2h2.3c5.2,0,10.4-0.1,15.6-0.1c0.8,0,1.8-0.1,2.1-0.1s0.4,0.1,0.4,0.3l2.7,8.5
	c0.1,0.2,0.1,0.4-0.2,0.5l-0.8,0.4c-0.2,0.1-0.4-0.1-0.4-0.2c-0.1-0.2-4-5.2-5.3-6c-1.1-0.7-2.6-1.4-4-1.4l-9.4-0.2v15.5H471.5z"/>
<path class="st0" d="M501.3,32.6c0-3.9,0-7.3-0.1-8.8c-0.1-1.7-0.7-2.6-2-2.6h-2.1c-0.3,0-0.3-0.2-0.3-0.4v-1.3
	c0-0.3,0.1-0.4,0.3-0.4c0.5,0,2.1,0.2,6.5,0.2c2.9,0,7.8-0.2,8.8-0.2c4.4,0,7.8,1.3,9.8,3.2c1.7,1.7,2.7,4.1,2.7,6
	c0,6.6-3,9.1-9.7,10.5V39c1.3,0.5,2,1.4,2.4,2c0.6,0.7,4.4,6.1,4.8,6.7c0.3,0.5,3.6,5.3,4.6,6.1c1.1,0.8,2.3,0.9,3.8,0.9
	c0.4,0,0.4,0.2,0.4,0.4v1.2c0,0.3-0.1,0.5-0.4,0.5c-0.4,0-1.8-0.2-4.1-0.2c-1.5,0-3.5,0.1-4.3,0.2c-0.6-0.5-1.7-2.3-2.2-3
	c-0.4-0.6-3.3-5.6-3.5-6.1c-0.2-0.4-2.7-4.2-3.4-4.9c-1.4-1.6-2.6-3.1-5.7-3.1c-0.5,0-1,0-1.7,0.2v2.9c0,3.1,0.1,9,0.1,9.8
	c0.1,1.1,0.5,2.1,1.3,2.1h3.3c0.4,0,0.4,0.2,0.4,0.4v1.2c0,0.4-0.1,0.5-0.6,0.5c-0.6,0-1.9-0.2-6.9-0.2c-4.8,0-6,0.2-6.6,0.2
	c-0.4,0-0.4-0.2-0.4-0.4v-1.2c0-0.3,0-0.4,0.3-0.4h2.2c1.2,0,2.1-0.4,2.1-1.8c0.1-5.2,0.1-10.2,0.1-15.2v-5.2
	C501.2,32.6,501.3,32.6,501.3,32.6z M506,37.8c0.8,0.2,1.4,0.2,2.4,0.2c9.6,0,11.4-6.6,11.4-8.8c0-2.4-1.1-4.7-2.6-6
	c-2.1-1.6-4.4-2.4-8.7-2.4c-0.6,0-1.3,0.1-1.8,0.4c-0.4,0.3-0.6,0.8-0.6,1.7v14.9C506.1,37.8,506,37.8,506,37.8z"/>
<path class="st0" d="M405.8,32.7c0-3.9,0-7.3-0.1-8.8c-0.1-1.7-0.7-2.6-2-2.6h-2.1c-0.3,0-0.3-0.2-0.3-0.4v-1.3
	c0-0.3,0.1-0.4,0.3-0.4c0.5,0,2.1,0.2,6.5,0.2c2.9,0,7.8-0.2,8.7-0.2c4.3,0,7.8,1.3,9.7,3.2c1.7,1.7,2.7,4.1,2.7,6
	c0,6.6-3,9.1-9.6,10.5c0,0-4.4,0.8-7.4,0.8c-0.5,0-1,0-1.7,0.2v2.9c0,3.1,0.1,9,0.1,9.8c0.1,1.1,0.5,2.1,1.3,2.1h3.3
	c0.4,0,0.4,0.2,0.4,0.4v1.2c0,0.4-0.1,0.5-0.6,0.5c-0.6,0-1.9-0.2-6.8-0.2c-4.7,0-5.9,0.2-6.5,0.2c-0.4,0-0.4-0.2-0.4-0.4v-1.2
	c0-0.3,0-0.4,0.3-0.4h2.1c1.1,0,2-0.4,2-1.8c0.1-5.2,0.1-10.2,0.1-15.2V32.7z M410.5,37.9c0.8,0.2,1.4,0.2,2.3,0.2
	c9.5,0,11.3-6.6,11.3-8.8c0-2.4-1.1-4.7-2.6-6c-2-1.6-4.3-2.4-8.6-2.4c-0.6,0-1.3,0.1-1.8,0.4c-0.4,0.3-0.6,0.8-0.6,1.7L410.5,37.9
	L410.5,37.9z"/>
<path class="st0" d="M436.9,32.7c0-3.9,0-7.3-0.1-8.8c-0.1-1.7-0.7-2.6-2-2.6h-2.1c-0.3,0-0.3-0.2-0.3-0.4v-1.3
	c0-0.3,0.1-0.4,0.3-0.4c0.5,0,2.1,0.2,6.5,0.2c2.9,0,7.8-0.2,8.7-0.2c4.3,0,7.8,1.3,9.7,3.2c1.7,1.7,2.7,4.1,2.7,6
	c0,6.6-3,9.1-9.6,10.5c0,0-4.4,0.8-7.4,0.8c-0.5,0-1,0-1.7,0.2v2.9c0,3.1,0.1,9,0.1,9.8c0.1,1.1,0.5,2.1,1.3,2.1h3.3
	c0.4,0,0.4,0.2,0.4,0.4v1.2c0,0.4-0.1,0.5-0.6,0.5c-0.6,0-1.9-0.2-6.8-0.2c-4.7,0-5.9,0.2-6.5,0.2c-0.4,0-0.4-0.2-0.4-0.4v-1.2
	c0-0.3,0-0.4,0.3-0.4h2.1c1.1,0,2-0.4,2-1.8c0.1-5.2,0.1-10.2,0.1-15.2V32.7z M441.6,37.9c0.8,0.2,1.4,0.2,2.3,0.2
	c9.5,0,11.3-6.6,11.3-8.8c0-2.4-1.1-4.7-2.6-6c-2-1.6-4.3-2.4-8.6-2.4c-0.6,0-1.3,0.1-1.8,0.4c-0.4,0.3-0.6,0.8-0.6,1.7L441.6,37.9
	L441.6,37.9z"/>
<path class="st0" d="M371.7,42c-0.5,1.3-3.4,9.3-3.7,10.4c-0.1,0.4-0.2,0.9-0.2,1.2c0,0.7,0.6,1.2,1.8,1.2h2.5
	c0.4,0,0.5,0.1,0.5,0.4v1.2c0,0.4-0.2,0.5-0.4,0.5c-0.7,0-2.9-0.2-6-0.2c-3.8,0-5,0.2-5.7,0.2c-0.3,0-0.4-0.1-0.4-0.4v-1.3
	c0-0.3,0.2-0.4,0.4-0.4h1.8c1.6,0,2.3-0.7,3.1-2.4c0.4-0.8,4.2-10.6,5.7-14.9c0.4-1.1,4.6-12.4,5.1-13.8c0.2-0.5,0.4-1.2,0.1-1.8
	c-0.2-0.2-0.4-0.5-0.4-0.7s0.1-0.4,0.5-0.5c1.5-0.3,3.8-1.9,4.4-2.6c0.3-0.3,0.4-0.5,0.7-0.5c0.3,0,0.4,0.3,0.6,0.9
	c1,3.3,5.1,15.1,6.1,18.5c1.2,4.1,4.6,13.9,5.4,15.4c0.9,1.7,2.3,2.4,3.6,2.4h1.7c0.3,0,0.4,0.2,0.4,0.4v1.3c0,0.3-0.2,0.4-0.5,0.4
	c-0.9,0-2.1-0.2-6.3-0.2c-4.4,0-6.2,0.2-7.4,0.2c-0.3,0-0.4-0.2-0.4-0.5v-1.2c0-0.3,0.2-0.4,0.5-0.4h1.3c1.5,0,1.9-0.5,1.6-2
	c-0.4-1.9-2.6-8.6-3.3-10.7L371.7,42L371.7,42L371.7,42z M384,40.1c-0.5-1.6-4.7-14.7-5-15.5c-0.2-0.4-0.3-0.7-0.4-0.7
	c-0.2,0-0.4,0.4-0.6,0.8c-0.3,0.7-5.3,14.2-5.6,15.5L384,40.1L384,40.1z"/>
<path class="st0" d="M327.1,49.7c0.1,2,0.8,4.9,2.2,4.9h1.7c0.3,0,0.3,0.2,0.3,0.4v1.4c0,0.2,0,0.4-0.4,0.4c-0.5,0-1.6-0.2-4.7-0.2
	c-3.6,0-5.1,0.2-5.5,0.2c-0.3,0-0.4-0.1-0.4-0.5V55c0-0.2,0-0.3,0.3-0.3h1.7c1.4,0,1.9-2.4,2-4.1c0.4-3.8,0.8-16.2,0.8-17.2v-8.1
	c0-2.4-0.4-4-2.3-4h-1.4c-0.3,0-0.3-0.2-0.3-0.4v-1.5c0-0.2,0-0.3,0.3-0.3c0.4,0-0.4,0.2,4.6,0.2c2,0,3.3-0.2,3.8-0.2
	c0.4,0,0.8,0.1,1,0.9c2.7,9,6.8,20.8,9.1,28.7c0.5-1,4.7-13.8,4.9-14.6c0.2-0.5,4.4-13.2,4.6-14.2c0.1-0.6,0.7-0.6,1.9-0.6
	c5.6,0,7-0.2,8.5-0.2c0.2,0,0.3,0.2,0.3,0.5v1.2c0,0.3,0,0.5-0.3,0.5H357c-1,0-1.1,1-1.1,2.1c0,0.8,0,13.8,0.1,14.9
	c0,1.1,0.1,12.6,0.1,13.6c0,2,0.4,2.9,1,2.9h3c0.3,0,0.3,0.2,0.3,0.4v1.3c0,0.3,0,0.5-0.4,0.5c-0.5,0-1.3-0.2-6.3-0.2
	c-4.3,0-6,0.2-6.5,0.2c-0.3,0-0.3-0.2-0.3-0.5V55c0-0.3,0-0.4,0.3-0.4h2.4c0.7,0,1.1-0.3,1.2-1.8c0-0.6,0.2-10.3,0.2-14v-16h-0.3
	c-0.4,0.9-5.2,15.3-5.9,17.4c-0.9,2.4-4.7,14.2-4.9,14.6c-0.2,0.4-0.5,1.2-1,1.2c-0.3,0-0.6-0.4-0.8-1c-0.1-0.4-5.7-16.8-6-17.7
	c-0.8-2.4-4.7-14.3-5-14.9c-0.2,0.7-0.3,14.1-0.3,14.7C326.8,37.9,326.9,45.1,327.1,49.7z"/>
<g>
	<path class="st1" d="M49.5,0C22.2,0,0,16.8,0,37.5s22.1,37.4,49.4,37.4s49.4-16.8,49.4-37.4C98.9,16.8,76.7,0,49.5,0z M49.5,74.2
		C24.9,74.2,5,59,5,40.2S24.9,6.3,49.5,6.3S94,21.5,94,40.2S74,74.2,49.5,74.2z"/>
	<g>
		<path class="st1" d="M49.5,74.9c-13.2,0-25.6-3.9-35-11C10,60.5,6.4,56.5,3.9,52C1.3,47.4,0,42.5,0,37.5c0-5.1,1.3-10,3.9-14.6
			C6.4,18.4,10,14.4,14.5,11c9.3-7.1,21.8-11,35-11s25.6,3.9,35,11c4.5,3.4,8.1,7.4,10.6,11.9c2.6,4.6,3.9,9.5,3.9,14.6
			s-1.3,10-3.9,14.6C92.5,56.5,89,60.5,84.4,64C75.1,71,62.7,74.9,49.5,74.9z M49.5,0.1C36.3,0.1,23.9,4,14.5,11
			C10,14.5,6.5,18.5,4,22.9c-2.6,4.6-3.9,9.5-3.9,14.5S1.4,47.3,4,51.9c2.5,4.5,6,8.4,10.6,11.9c9.3,7.1,21.7,11,34.9,11
			s25.6-3.9,34.9-11c4.5-3.4,8.1-7.4,10.6-11.9c2.6-4.6,3.9-9.5,3.9-14.5s-1.3-9.9-3.9-14.5c-2.5-4.4-6-8.4-10.6-11.9
			C75,4,62.6,0.1,49.5,0.1z M49.5,74.2c-11.9,0-23.1-3.5-31.5-9.9s-13-15-13-24s4.6-17.6,13-24s19.6-10,31.5-10s23.1,3.5,31.5,10
			c8.4,6.4,13,15,13,24s-4.6,17.6-13,24C72.5,70.7,61.3,74.2,49.5,74.2z M49.5,6.3c-11.9,0-23,3.5-31.4,9.9s-13,14.9-13,24
			s4.6,17.6,13,24c8.4,6.4,19.6,9.9,31.4,9.9c11.9,0,23-3.5,31.4-9.9s13-14.9,13-24s-4.6-17.6-13-24C72.5,9.9,61.3,6.3,49.5,6.3z"/>
	</g>
	<g>
		<path class="st1" d="M89.8,44.4c0-16.5-14.9-29.8-40.3-29.8v-0.1c-25.4,0-40.3,13.4-40.3,29.8c0,10.4,6.9,19.6,17.9,25
			c10.6,5.6,22.4,4.9,22.4,4.9c-0.9,0-1.7,0-2.6-0.1c0.2,0,0.4,0,0.6,0c-2-0.1-4-0.3-5.8-0.6c2.5,0.3,5.1,0.5,7.8,0.5
			c-4.8,0-9.4-0.7-13.5-1.9C24.3,68.6,16.6,60.2,16.6,50c0-6.7,5.4-16.8,16.8-22.5c1.7-0.9,3-1.5,3.8-0.8c0.9,0.7,2.1,2.9,2.7,5.7
			c0,0-0.5-2.6-0.9-4.7c0.1,0.2,0.1,0.3,0.1,0.3s7.8,40.8,8.4,42.9c0.6,2,2,2.6,2,2.6s1.4-0.6,2-2.6c0.6-2.1,8.4-42.9,8.4-42.9
			s0-0.1,0.1-0.3c-0.4,2.1-0.9,4.7-0.9,4.7c0.6-2.8,1.8-5,2.7-5.7c0.8-0.7,2.1-0.1,3.8,0.8C77,33.2,82.4,43.3,82.4,50
			c0,13.2-13,23.5-31,24.2c0.1,0,0.2,0,0.2,0c-0.1,0-0.3,0-0.4,0c-0.6,0-1.2,0-1.8,0c0,0,10,0.6,19.8-3.7
			C81.8,65.4,89.8,55.6,89.8,44.4z M44.5,74c0.5,0,1,0.1,1.5,0.1C45.5,74.1,45,74,44.5,74z M42.5,73.8c0.3,0,0.5,0.1,0.8,0.1
			C43,73.9,42.8,73.8,42.5,73.8z M56.5,73.8c-0.3,0-0.5,0.1-0.8,0.1C56,73.9,56.2,73.8,56.5,73.8z M54.5,74c-0.5,0-1,0.1-1.5,0.1
			C53.5,74.1,54,74,54.5,74z M51.9,74.2c0.1,0,0.1,0,0.2,0c-0.2,0-0.4,0-0.7,0C51.6,74.2,51.7,74.2,51.9,74.2z"/>
		<path class="st1" d="M49.5,74.2c0.7,0,1.3,0,1.9,0C50.8,74.2,50.2,74.2,49.5,74.2z"/>
		<path class="st1" d="M49.5,74.2c-0.7,0-1.3,0-1.9,0C48.2,74.2,48.8,74.2,49.5,74.2z"/>
	</g>
	<g>
		<path class="st1" d="M67.4,28.5c0.5,0.3,1,0.6,1.5,0.9C68.4,29.1,67.9,28.8,67.4,28.5z"/>
		<path class="st1" d="M78.2,38.4c-2.2-3.1-5.1-6.2-8.9-8.7C72.8,32,75.9,35,78.2,38.4z"/>
		<path class="st1" d="M68.9,29.5c0.1,0.1,0.2,0.1,0.4,0.2C69.1,29.6,69,29.5,68.9,29.5z"/>
		<path class="st1" d="M62.5,26.4c-0.2,0-0.5,0.1-0.6,0.3C62,26.5,62.3,26.4,62.5,26.4L62.5,26.4z"/>
		<path class="st1" d="M52.1,68.4c1.3-6.1,4.2-21.2,6-30.8C56.2,47.4,53.3,62.6,52.1,68.4z"/>
		<path class="st1" d="M65.5,27.5c0.7,0.3,1.3,0.7,1.9,1C66.8,28.2,66.2,27.8,65.5,27.5z"/>
		<path class="st1" d="M61.7,26.9c0-0.1,0.1-0.2,0.2-0.2c0,0,0,0-0.1,0c-0.8,0.5-1.7,2.2-2.3,4.1C60.1,29,60.9,27.5,61.7,26.9z"/>
		<path class="st1" d="M62.6,26.4L62.6,26.4c0.7,0,1.7,0.5,2.9,1.1C64.3,26.9,63.3,26.4,62.6,26.4z"/>
		<path class="st1" d="M78.2,38.4L78.2,38.4C78.2,38.4,78.2,38.5,78.2,38.4C78.2,38.5,78.2,38.4,78.2,38.4z"/>
		<path class="st1" d="M19.8,23.3c7.3-5.7,17.6-8.7,29.7-8.7c7.5,0,14.3,1.1,20.1,3.4c-5.8-2.3-12.7-3.5-20.3-3.5
			C37.2,14.5,27,17.5,19.8,23.3c-2.8,2.1-5,4.6-6.6,7.3C14.9,27.9,17.1,25.4,19.8,23.3z"/>
		<path class="st1" d="M78.3,38.5c2.5,3.9,4,8,4,11.4c0,0,0,0,0-0.1C82.3,46.5,80.9,42.4,78.3,38.5z"/>
		<path class="st1" d="M20.9,38.6c3.1-4.5,7.5-8.3,12.7-10.9c1.2-0.6,2.2-1.1,3-1.1c0.3,0,0.6,0.1,0.9,0.3c0.8,0.6,1.6,2.1,2.2,3.9
			c-0.6-1.9-1.5-3.6-2.3-4.1c-0.2-0.2-0.5-0.3-0.8-0.3c-0.8,0-1.8,0.5-2.9,1.1c-8.5,4.3-17,13.3-17,22.5c0,2.9,0.6,5.6,1.8,8.2
			c-1.1-2.5-1.7-5.2-1.7-8C16.8,46.7,18.3,42.4,20.9,38.6z"/>
		<path class="st1" d="M79.2,23.3c-2.8-2.2-6-4-9.6-5.3c3.5,1.4,6.6,3.1,9.3,5.2c6.8,5.4,10.6,12.9,10.6,21.1
			c0,5.5-1.9,10.8-5.5,15.4c-3.6,4.5-8.7,8.2-14.9,10.7c-6,2.6-12,3.4-15.8,3.6c7.8-0.6,14.8-3,20-7c5.8-4.4,9-10.5,9-17l0,0
			c0,6.6-3.2,12.6-9,16.9c-5.8,4.5-13.9,7-22.8,7.2h-0.4h-0.6c-0.1,0-0.1,0-0.2,0.1h-0.1c-0.1,0-0.2,0-0.3,0h-0.4
			c-8.9-0.2-17-2.8-22.8-7.2c-3.3-2.5-5.7-5.5-7.2-8.8c1.5,3.4,4,6.5,7.3,9c5.2,3.9,12.2,6.4,19.9,7c-3.6-0.3-9.2-1-14.8-3.2
			C17.6,66,9.3,55.8,9.3,44.4c0-5,1.3-9.7,3.9-13.8c-2.6,4.1-4,8.8-4,13.8C9.2,55.8,17.4,66,30.8,71c7.4,3,14.7,3.3,17.5,3.3
			c0.7,0,1.2,0,1.2,0s0.4,0,1.2,0c3,0,10.8-0.4,18.5-3.7c6.2-2.5,11.4-6.3,15-10.8c3.7-4.6,5.6-9.9,5.6-15.4
			C89.8,36.2,86.1,28.7,79.2,23.3z"/>
		<path class="st1" d="M49.6,73.7c0.2-0.1,1.4-0.7,1.9-2.6l0,0c-0.5,1.7-1.7,2.2-1.9,2.3c-0.2-0.1-1.3-0.7-1.9-2.4v0.1
			C48.2,73,49.5,73.6,49.6,73.7z"/>
		<path class="st1" d="M52.1,68.4c-0.3,1.4-0.5,2.3-0.6,2.6c0-0.1,0.1-0.2,0.1-0.3C51.7,70.6,51.8,69.7,52.1,68.4z"/>
		<path class="st1" d="M47.6,70.8c0,0.1,0.1,0.1,0.1,0.2c-0.5-2.3-5.5-28-7.7-39.2c-0.1-0.3-0.2-0.7-0.3-1c0.1,0.2,0.1,0.5,0.2,0.7
			C42,42.8,47.1,69.1,47.6,70.8z"/>
		<path class="st1" d="M59.5,30.8c-0.1,0.3-0.2,0.7-0.3,1c-0.3,1.5-0.6,3.5-1.1,5.9c0.5-2.5,0.9-4.7,1.2-6.2
			C59.4,31.3,59.4,31,59.5,30.8z"/>
	</g>
</g>
</svg>
